<?xml version="1.0" encoding="UTF-8"?>
<svg version="1.1" xmlns="http://www.w3.org/2000/svg" width="64" height="64">
<path d="M0 0 C4.89594362 2.27311668 7.79186259 5.074155 10 10 C10.32428683 14.68646773 10.23125266 19.31071004 10 24 C10.94875 23.95875 11.8975 23.9175 12.875 23.875 C16 24 16 24 18 26 C18.19973733 28.70135323 18.27981573 31.29797211 18.265625 34 C18.26849518 35.18722656 18.26849518 35.18722656 18.27142334 36.3984375 C18.27278518 38.0729199 18.26908882 39.74741285 18.26074219 41.421875 C18.2500424 43.98982381 18.26063725 46.55707303 18.2734375 49.125 C18.2721159 50.75000155 18.26955351 52.37500266 18.265625 54 C18.26967346 54.77085938 18.27372192 55.54171875 18.27789307 56.3359375 C18.22992132 61.77007868 18.22992132 61.77007868 16 64 C14.10253906 64.25396729 14.10253906 64.25396729 11.765625 64.25878906 C10.89131836 64.26509338 10.01701172 64.27139771 9.11621094 64.27789307 C7.69743652 64.27182037 7.69743652 64.27182037 6.25 64.265625 C5.28094727 64.26753845 4.31189453 64.2694519 3.31347656 64.27142334 C1.26236715 64.27278579 -0.78875086 64.26908518 -2.83984375 64.26074219 C-5.98717539 64.25004359 -9.1339362 64.26063554 -12.28125 64.2734375 C-14.2708346 64.27211592 -16.26041884 64.26955355 -18.25 64.265625 C-19.19584961 64.26967346 -20.14169922 64.27372192 -21.11621094 64.27789307 C-22.4276709 64.26843658 -22.4276709 64.26843658 -23.765625 64.25878906 C-24.53680664 64.25719788 -25.30798828 64.25560669 -26.10253906 64.25396729 C-28 64 -28 64 -30 62 C-30.19973733 59.29864677 -30.27981573 56.70202789 -30.265625 54 C-30.26753845 53.20851562 -30.2694519 52.41703125 -30.27142334 51.6015625 C-30.27278518 49.9270801 -30.26908882 48.25258715 -30.26074219 46.578125 C-30.2500424 44.01017619 -30.26063725 41.44292697 -30.2734375 38.875 C-30.2721159 37.24999845 -30.26955351 35.62499734 -30.265625 34 C-30.26967346 33.22914062 -30.27372192 32.45828125 -30.27789307 31.6640625 C-30.22992132 26.22992132 -30.22992132 26.22992132 -28 24 C-24.875 23.875 -24.875 23.875 -22 24 C-22.04640625 23.05898438 -22.0928125 22.11796875 -22.140625 21.1484375 C-22.43560209 10.97172775 -22.43560209 10.97172775 -20.375 6.375 C-13.99981614 -0.00018386 -8.88245994 -1.19571576 0 0 Z M-14 9 C-16.12054026 12.27586908 -16.21670998 14.89818098 -16.125 18.75 C-16.08375 20.4825 -16.0425 22.215 -16 24 C-9.4 24 -2.8 24 4 24 C4.71242715 15.37340209 4.71242715 15.37340209 1 8 C-3.98424831 4.39071674 -9.34986731 5.38323013 -14 9 Z M-9.125 37 C-9.74375 37.66 -10.3625 38.32 -11 39 C-10.690625 39.66 -10.38125 40.32 -10.0625 41 C-8.75039745 44.70476015 -8.39735865 48.09263991 -8 52 C-6.68 52 -5.36 52 -4 52 C-3.814375 50.1746875 -3.814375 50.1746875 -3.625 48.3125 C-3.21108694 44.93520941 -2.45426549 42.10243305 -1 39 C-2.28965176 37.62437146 -3.62689293 36.29233607 -5 35 C-7.24362573 34.7715451 -7.24362573 34.7715451 -9.125 37 Z " fill="#BBEAD5" transform="translate(38,0)"/>
</svg>
