<?xml version="1.0" encoding="UTF-8"?>
<svg version="1.1" xmlns="http://www.w3.org/2000/svg" width="64" height="64">
<path d="M0 0 C7.63155459 5.56255534 13.10385214 11.53665653 15 21 C15.79593455 31.57674561 14.75220801 39.11646554 7.8125 47.3125 C2.30418644 53.0899494 -3.62800946 56.59574022 -11.69921875 57.203125 C-23.0419934 57.38105088 -29.51920519 55.33592082 -37.828125 47.4140625 C-44.05962884 40.48767874 -45.34155013 33.12241221 -45.19921875 24.08984375 C-44.57800533 14.45494537 -40.10904939 8.39584378 -33 2 C-23.59020968 -4.27319355 -10.0654636 -5.57037915 0 0 Z M-35.0859375 8.8359375 C-40.58373339 15.05181285 -42.30614689 21.73403391 -42 30 C-40.35692709 38.59246326 -36.01485158 44.80900983 -29 50 C-23.19592388 53.7793984 -16.29000068 54.81107825 -9.5 53.52734375 C-0.76340352 50.82667288 4.77808116 45.9479468 9.75 38.3125 C12.48536596 31.06378021 12.77357568 23.75934329 10.203125 16.421875 C7.00744042 9.98900344 1.85660575 4.48277093 -4.80859375 1.65234375 C-16.51631865 -1.83284352 -26.33512769 0.3325004 -35.0859375 8.8359375 Z " fill="#BCEBD6" transform="translate(47,5)"/>
<path d="M0 0 C2.82424288 2.19022918 4.41508603 3.83017207 6 7 C6.42526125 11.62062705 6.56310381 15.71290557 4.6875 20 C2.61081467 22.46125669 0.91939796 23.85196135 -2.3046875 24.37109375 C-9.28881062 24.55153462 -9.28881062 24.55153462 -13.0625 21.625 C-16.57477085 16.86643949 -16.66739992 12.81082861 -16 7 C-12.87134838 -0.42869414 -7.38848163 -1.06877407 0 0 Z M-12 7 C-13.3899408 9.7798816 -13.18488204 11.9186326 -13 15 C-12.13574999 17.59275002 -11.43273517 18.67544863 -9.25 20.3125 C-6.15305467 21.25878885 -4.09970844 20.85736616 -1 20 C0.99301736 18.41933106 1.86543351 17.26913298 3 15 C3.25491388 11.0913205 3.23289019 8.29057502 1 5 C-4.28008911 1.47994059 -8.07684792 2.05973442 -12 7 Z " fill="#BBEAD6" transform="translate(37,7)"/>
<path d="M0 0 C1.30324219 -0.0309375 1.30324219 -0.0309375 2.6328125 -0.0625 C8.53646666 -0.09795738 12.88547434 0.73613035 18.25 3.25 C20.56367137 5.99748475 21.19941152 7.49117281 21.4375 11.0625 C21.3446875 12.1453125 21.3446875 12.1453125 21.25 13.25 C19.93 13.25 18.61 13.25 17.25 13.25 C16.755 10.28 16.755 10.28 16.25 7.25 C6.30010605 3.55180933 -3.61075731 2.7493045 -13.8125 6.1171875 C-16.15202947 7.48505755 -16.62562401 8.36672404 -17.375 10.9375 C-17.49875 12.030625 -17.6225 13.12375 -17.75 14.25 C-18.74 13.92 -19.73 13.59 -20.75 13.25 C-20.65263078 10.32892345 -20.56976301 8.01603907 -19.75 5.25 C-13.61271597 -0.06897949 -7.72157942 0.04502379 0 0 Z " fill="#BBEBD5" transform="translate(31.75,32.75)"/>
<path d="M0 0 C7.92 0 15.84 0 24 0 C24 0.99 24 1.98 24 3 C16.08 3 8.16 3 0 3 C0 2.01 0 1.02 0 0 Z " fill="#BBEAD5" transform="translate(20,52)"/>
<path d="M0 0 C6.6 0 13.2 0 20 0 C20 0.99 20 1.98 20 3 C13.4 3 6.8 3 0 3 C0 2.01 0 1.02 0 0 Z " fill="#BCE9D4" transform="translate(22,47)"/>
<path d="M0 0 C2 2 2 2 2.125 4.625 C2.08375 5.40875 2.0425 6.1925 2 7 C1.01 7 0.02 7 -1 7 C-1.33 6.01 -1.66 5.02 -2 4 C-3.32 4 -4.64 4 -6 4 C-6.33 4.99 -6.66 5.98 -7 7 C-7.99 7 -8.98 7 -10 7 C-10.25 4.6875 -10.25 4.6875 -10 2 C-6.89011997 -1.58832311 -4.37100102 -1.2352829 0 0 Z " fill="#BBEAD4" transform="translate(36,12)"/>
</svg>
